<?xml version="1.0" encoding="UTF-8" standalone="no"?>
<svg
   xmlns:dc="http://purl.org/dc/elements/1.1/"
   xmlns:cc="http://creativecommons.org/ns#"
   xmlns:rdf="http://www.w3.org/1999/02/22-rdf-syntax-ns#"
   xmlns:svg="http://www.w3.org/2000/svg"
   xmlns="http://www.w3.org/2000/svg"
   xmlns:sodipodi="http://sodipodi.sourceforge.net/DTD/sodipodi-0.dtd"
   xmlns:inkscape="http://www.inkscape.org/namespaces/inkscape"
   height="66"
   version="1.1"
   viewBox="0 0 66 66"
   width="66"
   id="svg45"
   sodipodi:docname="sunCloud.svg"
   inkscape:version="0.92.4 (5da689c313, 2019-01-14)"
   inkscape:export-filename="/Users/hayato/devel/Swift/WeatherForecast/materials/appIcon_152.png"
   inkscape:export-xdpi="221.09"
   inkscape:export-ydpi="221.09">
  <metadata
     id="metadata49">
    <rdf:RDF>
      <cc:Work
         rdf:about="">
        <dc:format>image/svg+xml</dc:format>
        <dc:type
           rdf:resource="http://purl.org/dc/dcmitype/StillImage" />
        <dc:title />
      </cc:Work>
    </rdf:RDF>
  </metadata>
  <sodipodi:namedview
     pagecolor="#ffffff"
     bordercolor="#666666"
     borderopacity="1"
     objecttolerance="10"
     gridtolerance="10"
     guidetolerance="10"
     inkscape:pageopacity="0"
     inkscape:pageshadow="2"
     inkscape:window-width="1385"
     inkscape:window-height="873"
     id="namedview47"
     showgrid="false"
     inkscape:zoom="5.5625733"
     inkscape:cx="12.613507"
     inkscape:cy="37.446438"
     inkscape:window-x="0"
     inkscape:window-y="0"
     inkscape:window-maximized="0"
     inkscape:current-layer="svg45" />
  <desc
     id="desc4" />
  <defs
     id="defs6" />
  <rect
     style="fill:#ffffff;fill-opacity:1;stroke:none;stroke-width:9.12800884;stroke-miterlimit:4;stroke-dasharray:none"
     id="rect4559"
     width="66"
     height="66"
     x="0"
     y="0" />
  <g
     id="Page-1"
     style="fill:none;fill-rule:evenodd;stroke:none;stroke-width:1"
     transform="translate(3.0001665,2.9999853)">
    <g
       id="012---Sun-Cloud"
       transform="translate(-1)"
       style="fill-rule:nonzero">
      <g
         id="Colours"
         transform="translate(1,1)">
        <path
           d="M 59,29 C 59.007685,40.740544 51.94025,51.328956 41.09487,55.825418 30.24949,60.32188 17.763295,57.840346 9.4614745,49.538525 1.1596542,41.236705 -1.3218805,28.75051 3.1745818,17.90513 7.6710441,7.0597498 18.259456,-0.00768453 30,0 37.692669,-0.00454004 45.071571,3.0493504 50.51111,8.4888898 55.95065,13.928429 59.00454,21.307331 59,29 Z"
           id="Shape"
           inkscape:connector-curvature="0"
           style="fill:#d84315" />
        <path
           d="M 55,31 C 55.003761,41.16251 49.688894,50.585871 40.99,55.84 32.045492,59.499529 21.865869,58.463999 13.841494,53.078297 5.8171194,47.692595 1.0020639,38.66418 1,29 0.99626512,18.837496 6.3111249,9.4141476 15.01,4.16 23.954509,0.5005349 34.134097,1.5360931 42.158453,6.9217823 50.182808,12.307471 54.997877,21.335843 55,31 Z"
           id="path9"
           inkscape:connector-curvature="0"
           style="fill:#ff5722" />
        <path
           d="m 42,27 c 0.0091,3.150601 -1.22734,6.177121 -3.44,8.42 L 35.71,36.06 27,38 18.69,31.02 C 18.229765,29.729852 17.996319,28.369775 18,27 c 0,-6.627417 5.372583,-12 12,-12 6.627417,0 12,5.372583 12,12 z"
           id="path11"
           inkscape:connector-curvature="0"
           style="fill:#fdd834" />
        <path
           d="m 38,29 c 0.0077,2.537104 -0.794587,5.01044 -2.29,7.06 L 27,38 18.69,31.02 C 18.229765,29.729852 17.996319,28.369775 18,27 c -0.0035,-3.740478 1.738265,-7.268441 4.71,-9.54 3.620016,-1.032236 7.514625,-0.305911 10.51922,1.961783 C 36.233816,21.689476 38.000137,25.23569 38,29 Z"
           id="path13"
           inkscape:connector-curvature="0"
           style="fill:#ffeb3a" />
        <path
           d="M 46,40 C 45.173104,39.9962 44.352638,40.145378 43.58,40.44 42.809128,38.159246 41.052379,36.346755 38.796809,35.505038 36.541239,34.66332 34.026574,34.881835 31.95,36.1 31.614791,33.131883 29.653469,30.597946 26.864172,29.529347 24.074874,28.460747 20.92255,29.035609 18.69,31.02 c -0.661962,0.581264 -1.219959,1.271152 -1.65,2.04 -0.682703,1.20083 -1.041117,2.558669 -1.04,3.94 5.44e-4,0.715849 0.09467,1.428556 0.28,2.12 C 15.85817,39.039034 15.429528,38.998848 15,39 12.383702,39.000457 9.9854177,40.457936 8.78,42.78 8.2646904,43.774934 7.9971151,44.87954 8,46 c -0.00551,0.808987 0.1368231,1.612174 0.42,2.37 v 0.01 c 10.545796,11.740694 28.544577,12.891727 40.5,2.59 0.02,-0.01 0.03,-0.02 0.03,-0.03 1.486044,-1.277857 2.836504,-2.70539 4.03,-4.26 C 52.822104,42.941386 49.741941,39.993609 46,40 Z"
           id="path15"
           inkscape:connector-curvature="0"
           style="fill:#cfd8dc" />
        <path
           d="m 49.98,49.68 c -0.33,0.43 -0.67,0.85 -1.03,1.26 0,0.01 -0.01,0.02 -0.03,0.03 C 36.964577,61.271727 18.965796,60.120694 8.42,48.38 V 48.37 C 8.1368231,47.612174 7.9944861,46.808987 8,46 7.99423,42.88697 10.049877,40.146114 13.04,39.28 13.676865,39.094725 14.336733,39.000458 15,39 c 0.429528,-0.0012 0.85817,0.03903 1.28,0.12 C 16.094675,38.428556 16.000544,37.715849 16,37 c -0.0011,-1.381331 0.357297,-2.73917 1.04,-3.94 2.333984,-1.340007 5.186013,-1.413945 7.586294,-0.196674 2.400281,1.217271 4.025757,3.561917 4.323706,6.236674 2.076467,-1.218711 4.591357,-1.437521 6.847099,-0.59574 2.255742,0.841782 4.012467,2.654643 4.782901,4.93574 0.772638,-0.294622 1.593104,-0.443798 2.42,-0.44 3.741941,-0.0064 6.822104,2.941386 6.98,6.68 z"
           id="path17"
           inkscape:connector-curvature="0"
           style="fill:#f5f5f5" />
        <polygon
           id="polygon19"
           points="27,11 33,11 30,4 "
           style="fill:#ffeb3a" />
        <polygon
           id="polygon21"
           points="16.565,17.808 20.808,13.565 13.737,10.737 "
           style="fill:#ffeb3a" />
        <polygon
           id="polygon23"
           points="14,30 14,24 7,27 "
           style="fill:#ffeb3a" />
        <polygon
           id="polygon25"
           points="46,24 46,30 53,27 "
           style="fill:#ffeb3a" />
        <polygon
           id="polygon27"
           points="39.192,13.565 43.435,17.808 46.263,10.737 "
           style="fill:#ffeb3a" />
      </g>
      <g
         id="Icons"
         style="fill:#000000">
        <path
           d="M 31,0 C 19.191405,-0.00857678 8.4778606,6.9158976 3.635953,17.686177 -1.2059545,28.456457 0.72591644,41.065829 8.57025,49.89246 c 0.062457,0.106963 0.1444444,0.201247 0.2417,0.27795 5.951272,6.56147 14.501713,10.15208 23.353342,9.806833 8.851628,-0.345248 17.096424,-4.590937 22.518548,-11.596013 0.02863,-0.0319 0.05513,-0.06564 0.07934,-0.101 6.979323,-9.052263 8.203221,-21.28578 3.155538,-31.541281 C 52.871034,6.4834486 42.430412,-0.0088757 31,0 Z m 0,58 C 23.120049,58.003153 15.605321,54.67789 10.30829,48.84393 10.104786,48.250432 10.000623,47.627418 10,47 c 0.0036,-3.312208 2.687793,-5.996379 6,-6 0.19263,0 0.36993,0.03418 0.55518,0.05182 0.442558,1.241319 1.150206,2.371335 2.07373,3.31146 0.388333,0.392639 1.021436,0.396128 1.414075,0.0078 0.392639,-0.388333 0.396129,-1.021436 0.0078,-1.414075 -0.855301,-0.861514 -1.473868,-1.929122 -1.7959,-3.09961 -0.01097,-0.04097 -0.02483,-0.08112 -0.0415,-0.12012 C 18.071827,39.16902 18.000171,38.585615 18,38 c -2.95e-4,-3.598331 2.727782,-6.610635 6.308542,-6.965804 3.58076,-0.355169 6.847428,2.062528 7.554008,5.590804 -0.859184,0.596692 -1.607776,1.33859 -2.21216,2.19238 -0.31254,0.452738 -0.200724,1.072899 0.250254,1.387974 0.450978,0.315074 1.071756,0.206739 1.389356,-0.242464 1.758324,-2.49027 4.926841,-3.55516 7.832264,-2.632303 C 42.027687,38.253444 44.000959,40.951533 44,44 c -0.0024,0.477055 -0.05001,0.952809 -0.14209,1.4209 -0.05018,0.260437 0.0052,0.530141 0.153912,0.749745 0.148728,0.219603 0.378626,0.371105 0.639088,0.421155 0.0626,0.01198 0.126199,0.01803 0.18994,0.01806 0.47897,-6.66e-4 0.890281,-0.340699 0.981,-0.811 C 45.937927,45.206214 45.997577,44.603901 46,44 45.997768,43.372256 45.929831,42.746469 45.7973,42.13287 46.192564,42.047337 46.595597,42.002812 47,42 c 3.065827,-0.01266 5.640056,2.304901 5.9483,5.35522 C 47.647626,54.076465 39.559923,57.998948 31,58 Z M 20,28 c -0.0034,-4.898289 3.232459,-9.208659 7.937022,-10.572599 4.704563,-1.363941 9.744165,0.547218 12.361279,4.687745 2.617115,4.140526 2.181095,9.512677 -1.069481,13.176964 -1.841468,-0.460884 -3.780855,-0.3357 -5.54779,0.3581 C 32.942988,32.90414 30.948138,30.669787 28.30295,29.626434 25.657762,28.583081 22.674749,28.853994 20.2608,30.35681 20.089487,29.582851 20.002049,28.792689 20,28 Z M 54.49225,45.20685 C 53.336647,42.069637 50.343263,39.98934 47,40 46.382095,40.0012 45.766493,40.07534 45.166,40.221 44.335661,38.438204 42.945059,36.975876 41.20624,36.057 45.043824,31.216137 44.948342,24.344151 40.977743,19.611778 37.007144,14.879405 30.256245,13.591508 24.822293,16.529735 19.388341,19.467961 16.769645,25.822152 18.55554,31.73583 16.91998,33.411113 16.003045,35.658714 16,38 c 0.0036,0.335305 0.02559,0.67016 0.06592,1.00305 C 16.0437,39.00287 16.02228,39 16,39 11.959512,39.006367 8.5567259,42.02183 8.06451,46.03223 1.1512563,36.143512 1.3520318,22.937809 8.5627108,13.263827 15.77339,3.5898452 28.371309,-0.37542025 39.82297,3.424486 51.27463,7.2243923 59.002995,17.934354 59,30 c 0.0044,5.39891 -1.561788,10.68252 -4.50775,15.20685 z"
           id="path30"
           inkscape:connector-curvature="0" />
        <path
           d="M 31.919,4.606 C 31.76146,4.2383881 31.399997,4.0000359 31.00005,4.0000359 c -0.399947,0 -0.76141,0.2383522 -0.91895,0.6059641 l -3,7 c -0.132503,0.308931 -0.100906,0.663768 0.0841,0.944425 C 27.350203,12.831082 27.663852,12.999996 28,13 h 6 c 0.336165,2.9e-5 0.649846,-0.16887 0.834874,-0.449533 C 35.019902,12.269804 35.05151,11.914947 34.919,11.606 Z M 29.5166,11 31,7.53857 32.4834,11 Z"
           id="path32"
           inkscape:connector-curvature="0" />
        <path
           d="m 22.1792,13.63623 -7.07129,-2.82861 c -0.371523,-0.148393 -0.795728,-0.06121 -1.078615,0.221675 -0.282886,0.282887 -0.370068,0.707092 -0.221675,1.078615 l 2.82861,7.07129 c 0.124934,0.312068 0.39828,0.540502 0.727574,0.608032 0.329294,0.06753 0.670487,-0.03488 0.908166,-0.272582 L 22.51465,15.272 c 0.237634,-0.23771 0.339994,-0.578877 0.27247,-0.908143 C 22.7196,14.034591 22.491215,13.76125 22.1792,13.63626 Z m -4.249,3.39209 -1.39893,-3.49707 3.49707,1.39893 z"
           id="path34"
           inkscape:connector-curvature="0" />
        <path
           d="m 15.55029,24.165 c -0.280652,-0.184937 -0.635442,-0.216496 -0.94433,-0.084 l -7,3 c -0.3676119,0.15754 -0.6059641,0.519003 -0.6059641,0.91895 0,0.399947 0.2383522,0.76141 0.6059641,0.91895 l 7,3 c 0.308935,0.132521 0.663785,0.100932 0.944454,-0.08407 C 15.831083,31.649819 16.000001,31.336158 16,31 v -6 c -5.6e-5,-0.336221 -0.16901,-0.649926 -0.44971,-0.835 z M 14,29.4834 10.53857,28 14,26.5166 Z"
           id="path36"
           inkscape:connector-curvature="0" />
        <path
           d="M 46.44971,24.165 C 46.16901,24.350074 46.000056,24.663779 46,25 v 6 c -8.9e-5,0.336187 0.168801,0.649907 0.449487,0.83494 0.280685,0.185033 0.635577,0.216599 0.944513,0.08401 l 7,-3 C 54.761612,28.76141 54.999964,28.399947 54.999964,28 c 0,-0.399947 -0.238352,-0.76141 -0.605964,-0.91895 l -7,-3 C 47.085158,23.948391 46.730306,23.979939 46.44971,24.165 Z M 48,26.5166 51.46143,28 48,29.4834 Z"
           id="path38"
           inkscape:connector-curvature="0" />
        <path
           d="m 47.9707,11.0293 c -0.283112,-0.282463 -0.707045,-0.369592 -1.07861,-0.22168 l -7.07129,2.82861 c -0.312015,0.12499 -0.540396,0.398331 -0.60792,0.727597 -0.06752,0.329266 0.03484,0.670433 0.27247,0.908143 l 4.24265,4.24268 c 0.23771,0.237634 0.578877,0.339994 0.908143,0.27247 0.329266,-0.06752 0.602607,-0.295905 0.727597,-0.60792 l 2.82861,-7.07129 c 0.148362,-0.37152 0.06119,-0.795702 -0.22165,-1.07861 z m -3.90088,5.999 -2.09814,-2.09814 3.49707,-1.39893 z"
           id="path40"
           inkscape:connector-curvature="0" />
      </g>
    </g>
  </g>
</svg>
